# xmcd
#
# Track frame offsets:
# 150
# 23791
# 41479
# 72316
# 89231
# 110928
# 139864
# 150310
# 176474
# 193299
# 200924
# 226366
# 240437
# 253797
# 269526
# 284168
# 297835
#
# Disc length: 4325 seconds
#
# Revision: 0
# Processed by: cddbd v1.5.2PL0 Copyright (c) Steve Scherf et al.
# Submitted via: Audion 3.0.2 (http://www.panic.com/audion/)
#
DISCID=1010e311
DTITLE=Disco 2 - Caminando hacia la luz
DYEAR=1900
DGENRE=
TTITLE0=Al taller del maestro
TTITLE1=Gocemonos y alegremonos
TTITLE2=Poderoso
TTITLE3=El poder de la oracion
TTITLE4=Que seria de mii
TTITLE5=Que cancion de esperanza
TTITLE6=Canta con gozo
TTITLE7=Mas que vencedor
TTITLE8=Si yo te dejo
TTITLE9=No es con ejercito
TTITLE10=El amor llego
TTITLE11=El Señor es mi pastor
TTITLE12=Quiero ser lleno
TTITLE13=Jesus eres mi Pastor
TTITLE14=Alabad a Dios
TTITLE15=Por tu sangre
TTITLE16=Te vengo a decir
EXTD=
EXTT0=
EXTT1=
EXTT2=
EXTT3=
EXTT4=
EXTT5=
EXTT6=
EXTT7=
EXTT8=
EXTT9=
EXTT10=
EXTT11=
EXTT12=
EXTT13=
EXTT14=
EXTT15=
EXTT16=
PLAYORDER=
